<svg width="758" height="439" viewBox="0 0 758 439" fill="none" xmlns="http://www.w3.org/2000/svg">
<path d="M706.325 132.341C777.815 228.567 616.95 388.038 486.334 427.208C355.722 466.378 178.042 404.765 143.559 289.776C109.074 174.784 161.4 46.9363 292.015 7.76692C351.53 -10.0812 440.993 2.7472 505.767 47.1238C589.816 104.705 652.198 59.4965 706.325 132.341Z" fill="#ECF4F7"/>
<path d="M609.195 384.607C615.941 376.413 622.128 367.137 627.469 356.939C646.393 320.79 649.755 282.522 638.877 256.46C611.265 262.368 581.717 286.929 562.795 323.078C551.951 343.791 546.217 365.198 545.341 384.607H609.195Z" fill="#C5E0D6"/>
<path d="M571.777 385.455C571.642 385.455 571.507 385.424 571.385 385.358C570.972 385.141 570.811 384.628 571.023 384.214L632.109 267.559C632.325 267.145 632.841 266.984 633.252 267.202C633.663 267.419 633.827 267.931 633.603 268.346L572.528 385C572.378 385.289 572.08 385.455 571.777 385.455Z" fill="white"/>
<path d="M586.88 356.605C586.469 356.605 586.103 356.298 586.043 355.874C585.976 355.41 586.297 354.981 586.768 354.917L625.512 349.53C625.975 349.466 626.401 349.79 626.475 350.253C626.535 350.717 626.207 351.145 625.743 351.209L586.999 356.597C586.954 356.602 586.917 356.605 586.88 356.605Z" fill="white"/>
<path d="M601.605 328.493C601.201 328.493 600.85 328.211 600.775 327.805C600.678 327.346 600.985 326.901 601.44 326.813L633.991 320.572C634.447 320.485 634.895 320.785 634.985 321.244C635.075 321.704 634.776 322.149 634.313 322.237L601.762 328.478C601.709 328.489 601.657 328.493 601.605 328.493Z" fill="white"/>
<path d="M617.391 298.342C617.002 298.342 616.651 298.079 616.562 297.689C616.464 297.233 616.741 296.777 617.197 296.669L638.272 291.69C638.728 291.583 639.184 291.864 639.296 292.32C639.4 292.776 639.124 293.233 638.661 293.34L617.585 298.319C617.518 298.335 617.451 298.342 617.391 298.342Z" fill="white"/>
<path d="M585.37 359.483C585.064 359.483 584.758 359.312 584.616 359.017L566.971 324.103C566.758 323.685 566.925 323.175 567.344 322.964C567.757 322.753 568.272 322.921 568.479 323.337L586.125 358.252C586.342 358.671 586.17 359.18 585.751 359.391C585.632 359.454 585.505 359.483 585.37 359.483Z" fill="white"/>
<path d="M600.088 331.371C599.767 331.371 599.453 331.184 599.319 330.867L585.901 300.559C585.714 300.13 585.908 299.629 586.334 299.44C586.768 299.25 587.26 299.444 587.455 299.872L600.865 330.18C601.052 330.608 600.865 331.109 600.432 331.299C600.32 331.348 600.208 331.371 600.088 331.371Z" fill="white"/>
<path d="M615.874 301.22C615.538 301.22 615.217 301.016 615.09 300.682L607.171 280.522C606.999 280.086 607.215 279.594 607.656 279.423C608.082 279.251 608.583 279.466 608.747 279.902L616.666 300.062C616.838 300.498 616.621 300.99 616.18 301.161C616.091 301.201 615.979 301.22 615.874 301.22Z" fill="white"/>
<path d="M589.778 332.733H525.554C521.411 332.733 518.054 329.376 518.054 325.236V284.545H597.279V325.236C597.279 329.376 593.925 332.733 589.778 332.733Z" fill="#5F8199"/>
<path d="M567.789 353.424H547.538C543.215 353.424 539.187 351.237 536.829 347.614L527.158 332.733H588.172L578.497 347.614C576.144 351.237 572.109 353.424 567.789 353.424Z" fill="#3B4F66"/>
<path d="M597.279 324.51H518.054C516.933 324.51 516.018 323.6 516.018 322.475C516.018 321.353 516.933 320.441 518.054 320.441H597.279C598.4 320.441 599.311 321.353 599.311 322.475C599.311 323.6 598.4 324.51 597.279 324.51Z" fill="white"/>
<path d="M597.279 313.192H518.054C516.933 313.192 516.018 312.281 516.018 311.158C516.018 310.034 516.933 309.122 518.054 309.122H597.279C598.4 309.122 599.311 310.034 599.311 311.158C599.311 312.281 598.4 313.192 597.279 313.192Z" fill="white"/>
<path d="M597.279 301.873H518.054C516.933 301.873 516.018 300.963 516.018 299.839C516.018 298.716 516.933 297.805 518.054 297.805H597.279C598.4 297.805 599.311 298.716 599.311 299.839C599.311 300.963 598.4 301.873 597.279 301.873Z" fill="white"/>
<path d="M560.566 121.236C567.486 133.222 551.178 139.104 532.487 149.897C513.795 160.69 499.788 172.307 492.867 160.321C485.948 148.336 494.291 125.348 512.983 114.556C531.675 103.763 553.647 109.251 560.566 121.236Z" fill="white"/>
<path d="M610.077 185.386C620.91 159.795 618.101 102.581 561.945 91.1681C603.443 93.3399 636.546 127.724 637.249 169.275C637.525 185.625 632.856 200.866 624.66 213.615C612.572 232.412 606.162 254.295 606.162 276.646C606.162 281.009 602.628 284.545 598.258 284.545H517.119C512.732 284.545 509.169 280.987 509.169 276.597V276.596C509.169 266.541 507.925 256.546 505.425 246.895C510.922 267.2 520.354 277.642 539.935 277.642C556.823 277.642 568.968 267.967 576.181 250.118C585.049 228.197 599.087 211.373 610.077 185.386Z" fill="#B4CCC6"/>
<path d="M518.73 165.074C515.309 175.416 517.77 189.549 526.191 202.042C534.613 214.535 546.797 222.114 557.667 222.821C561.088 212.478 558.627 198.345 550.205 185.852C541.778 173.359 529.6 165.779 518.73 165.074Z" fill="#88BFB1"/>
<path d="M557.667 286.58C556.539 286.58 555.631 285.669 555.631 284.545V222.821C555.631 221.697 556.539 220.786 557.667 220.786C558.788 220.786 559.703 221.697 559.703 222.821V284.545C559.703 285.669 558.788 286.58 557.667 286.58Z" fill="#509993"/>
<path d="M608.149 147.952C612.58 161.361 609.39 179.684 598.474 195.881C587.552 212.078 571.758 221.905 557.667 222.821C553.227 209.412 556.417 191.088 567.338 174.891C578.258 158.694 594.052 148.867 608.149 147.952Z" fill="#509993"/>
<path d="M557.457 93.1821C537.514 93.1821 518.742 100.862 504.203 115.062C488.635 130.265 480.066 150.798 480.066 172.876C480.066 188.422 484.422 203.487 492.663 216.44C504.731 235.409 511.112 257.99 511.112 281.741C511.112 285.093 513.763 287.818 517.018 287.818H598.03C601.259 287.818 603.893 285.114 603.893 281.792C603.893 258.352 610.39 235.566 622.682 215.894C630.947 202.665 635.192 187.313 634.923 171.499C634.244 129.822 602.065 95.4705 561.664 93.2949C560.262 93.2189 558.853 93.1821 557.457 93.1821ZM598.03 292H517.018C511.524 292 507.047 287.398 507.047 281.741C507.047 258.806 500.897 237.018 489.266 218.731C480.588 205.095 476 189.239 476 172.876C476 161.166 478.304 149.836 482.839 139.2C487.219 128.927 493.466 119.784 501.405 112.029C509.337 104.284 518.517 98.35 528.694 94.392C539.27 90.2773 550.439 88.5023 561.877 89.1196C604.4 91.4088 638.272 127.564 638.989 171.428C639.257 188.072 634.804 204.23 626.099 218.157C614.231 237.152 607.95 259.156 607.95 281.792C607.95 287.42 603.505 292 598.03 292Z" fill="#5F8199"/>
<path d="M78.7706 225.411C81.5185 257.527 104.681 293.098 142.151 317.26C179.621 341.421 221.581 347.842 251.97 337.093C249.222 304.977 226.059 269.406 188.589 245.243C151.12 221.082 109.159 214.661 78.7706 225.411Z" fill="#88BFB1"/>
<path d="M251.969 337.941C251.812 337.941 251.653 337.897 251.511 337.806L87.1919 231.849C86.799 231.595 86.6854 231.07 86.9395 230.677C87.1935 230.284 87.7179 230.171 88.1116 230.424L252.429 336.38C252.822 336.634 252.936 337.159 252.682 337.552C252.52 337.803 252.248 337.941 251.969 337.941Z" fill="#C5E0D6"/>
<path d="M130.549 306.106C130.193 306.106 129.862 305.882 129.744 305.525C129.597 305.082 129.839 304.601 130.284 304.454L177.919 288.71C178.364 288.564 178.843 288.804 178.991 289.249C179.137 289.694 178.896 290.173 178.452 290.32L130.815 306.065C130.727 306.093 130.638 306.106 130.549 306.106Z" fill="#C5E0D6"/>
<path d="M109.786 281.213C109.411 281.213 109.068 280.962 108.967 280.583C108.847 280.131 109.116 279.666 109.569 279.546L147.96 269.346C148.413 269.225 148.877 269.494 148.997 269.948C149.117 270.4 148.847 270.864 148.395 270.984L110.005 281.185C109.931 281.204 109.858 281.213 109.786 281.213Z" fill="#C5E0D6"/>
<path d="M92.2454 255.633C91.862 255.633 91.5139 255.371 91.4213 254.981C91.313 254.526 91.5946 254.069 92.0503 253.96L115.487 248.388C115.944 248.281 116.4 248.561 116.508 249.016C116.617 249.471 116.335 249.929 115.88 250.037L92.4425 255.61C92.376 255.625 92.3102 255.633 92.2454 255.633Z" fill="#C5E0D6"/>
<path d="M145.033 268.978C144.626 268.978 144.266 268.684 144.197 268.27L137.648 229.091C137.569 228.629 137.882 228.192 138.343 228.115C138.806 228.037 139.242 228.35 139.32 228.811L145.87 267.991C145.947 268.452 145.635 268.888 145.173 268.966C145.126 268.974 145.079 268.978 145.033 268.978Z" fill="#C5E0D6"/>
<path d="M112.539 248.025C112.141 248.025 111.785 247.743 111.707 247.339L107.112 223.691C107.024 223.231 107.324 222.786 107.783 222.696C108.242 222.606 108.688 222.908 108.778 223.367L113.372 247.016C113.46 247.475 113.161 247.92 112.701 248.009C112.647 248.02 112.592 248.025 112.539 248.025Z" fill="#C5E0D6"/>
<path d="M130.529 125.648C116.027 160.398 120.506 211.421 145.744 259.621C170.982 307.82 210.365 340.568 247.186 348.444C261.688 313.695 257.208 262.672 231.971 214.472C206.733 166.273 167.35 133.525 130.529 125.648Z" fill="#C5E0D6"/>
<path d="M247.187 349.292C246.881 349.292 246.586 349.126 246.434 348.837L139.521 144.648C139.303 144.233 139.463 143.721 139.879 143.503C140.294 143.288 140.806 143.447 141.022 143.861L247.937 348.051C248.154 348.466 247.994 348.978 247.579 349.195C247.454 349.261 247.319 349.292 247.187 349.292Z" fill="white"/>
<path d="M165.372 193.037C165.324 193.037 165.275 193.034 165.227 193.025L134.728 187.779C134.267 187.698 133.958 187.26 134.036 186.799C134.116 186.338 134.555 186.031 135.016 186.107L165.514 191.354C165.976 191.433 166.285 191.871 166.205 192.334C166.135 192.746 165.777 193.037 165.372 193.037Z" fill="white"/>
<path d="M201.657 262.337C201.627 262.337 201.596 262.336 201.566 262.333L150.032 256.824C149.565 256.773 149.229 256.356 149.279 255.891C149.328 255.424 149.745 255.084 150.212 255.137L201.745 260.647C202.212 260.697 202.549 261.114 202.499 261.58C202.452 262.014 202.085 262.337 201.657 262.337Z" fill="white"/>
<path d="M182.766 226.258C182.73 226.258 182.694 226.256 182.658 226.251L139.793 220.791C139.328 220.732 139 220.306 139.059 219.842C139.118 219.378 139.542 219.049 140.007 219.108L182.872 224.569C183.336 224.628 183.665 225.053 183.605 225.517C183.551 225.945 183.186 226.258 182.766 226.258Z" fill="white"/>
<path d="M162.369 187.478C162.25 187.478 162.128 187.452 162.012 187.398C161.587 187.2 161.404 186.696 161.602 186.272L174.663 158.218C174.86 157.792 175.365 157.609 175.788 157.807C176.213 158.004 176.397 158.508 176.199 158.933L163.139 186.988C162.994 187.296 162.688 187.478 162.369 187.478Z" fill="white"/>
<path d="M198.655 256.778C198.517 256.778 198.378 256.744 198.249 256.673C197.838 256.449 197.687 255.935 197.911 255.523L222.741 210.03C222.965 209.619 223.479 209.468 223.891 209.692C224.302 209.917 224.454 210.432 224.229 210.842L199.4 256.336C199.246 256.618 198.954 256.778 198.655 256.778Z" fill="white"/>
<path d="M179.764 220.699C179.632 220.699 179.498 220.667 179.373 220.602C178.958 220.386 178.795 219.875 179.012 219.459L198.942 181.118C199.158 180.704 199.67 180.542 200.086 180.757C200.501 180.973 200.663 181.485 200.447 181.9L180.517 220.241C180.365 220.531 180.07 220.699 179.764 220.699Z" fill="white"/>
<path d="M193.43 384.607H362.392V221.885H193.43V384.607Z" fill="#F3DEC1"/>
<path d="M436.808 125.549H267.847L193.43 221.885H362.392L436.808 125.549Z" fill="#3B4F66"/>
<path d="M324.234 217.892L356.815 175.714H394.065L361.483 217.892H324.234ZM282.993 217.892L315.574 175.714H352.823L320.241 217.892H282.993ZM241.75 217.892L274.332 175.714H311.58L278.999 217.892H241.75ZM200.508 217.892L233.089 175.714H270.339L237.757 217.892H200.508ZM306.005 129.543L273.423 171.721H236.175L268.755 129.543H306.005ZM347.247 129.543L314.664 171.721H277.417L309.998 129.543H347.247ZM388.489 129.543L355.907 171.721H318.658L351.24 129.543H388.489ZM429.73 129.543L397.15 171.721H359.901L392.482 129.543H429.73ZM436.808 125.549H267.847L193.43 221.884H362.392L365.476 217.892L436.808 125.549Z" fill="#8FA7B8"/>
<path d="M285.178 384.607H291.814V311.988H285.178V384.607Z" fill="#C6C6C6"/>
<path d="M291.814 384.607H319.144V311.988H291.814V384.607Z" fill="#5F8199"/>
<path d="M256.156 384.607H276.455V299.51H256.156V384.607Z" fill="#C88345"/>
<path d="M307.569 299.51H327.868V286.199H307.569V299.51Z" fill="#C88345"/>
<path d="M256.156 286.199L256.156 286.199V286.198H242.845V384.607H256.156V299.509H307.569V286.199H256.156Z" fill="#F2CDB2"/>
<path d="M436.808 125.549L362.392 221.884V384.607H375.703V226.427L436.808 147.323V125.549Z" fill="#F2CDB2"/>
<path d="M436.808 125.549L511.224 221.884V384.607H497.913V226.427L436.808 147.323V125.549Z" fill="#F2CDB2"/>
<path d="M436.809 147.323L423.912 164.019L472.121 226.427V384.607H497.912V226.427L436.809 147.323Z" fill="#C88345"/>
<path d="M472.121 226.427L423.912 164.019L375.703 226.427V384.607H472.121V226.427Z" fill="#3B4F66"/>
<path d="M452.78 258.182V384.608H375.701V233.146L404.571 195.77L452.78 258.182Z" fill="#5F8199"/>
<path d="M285.178 270.539H291.814V237.544H285.178V270.539Z" fill="#C6C6C6"/>
<path d="M291.814 270.539H319.144V237.544H291.814V270.539Z" fill="#5F8199"/>
<path d="M291.814 246.292H319.144V237.544H291.814V246.292Z" fill="#3B4F66"/>
<path d="M291.814 320.735H319.144V311.988H291.814V320.735Z" fill="#3B4F66"/>
<path d="M390.645 385.456C390.178 385.456 389.798 385.076 389.798 384.608V207.083C389.798 206.614 390.178 206.235 390.645 206.235C391.114 206.235 391.494 206.614 391.494 207.083V384.608C391.494 385.076 391.114 385.456 390.645 385.456Z" fill="white"/>
<path d="M431.383 385.455C430.915 385.455 430.535 385.075 430.535 384.608V173.717C430.535 173.249 430.915 172.869 431.383 172.869C431.851 172.869 432.23 173.249 432.23 173.717V384.608C432.23 385.075 431.851 385.455 431.383 385.455Z" fill="white"/>
<path d="M472.121 385.455C471.65 385.455 471.27 385.075 471.27 384.607V226.427C471.27 225.959 471.65 225.58 472.121 225.58C472.59 225.58 472.971 225.959 472.971 226.427V384.607C472.971 385.075 472.59 385.455 472.121 385.455Z" fill="white"/>
<path d="M472.121 312.836H375.701C375.232 312.836 374.853 312.456 374.853 311.988C374.853 311.52 375.232 311.14 375.701 311.14H472.121C472.591 311.14 472.971 311.52 472.971 311.988C472.971 312.456 472.591 312.836 472.121 312.836Z" fill="white"/>
<path d="M472.121 273.473H375.701C375.232 273.473 374.853 273.093 374.853 272.625C374.853 272.157 375.232 271.777 375.701 271.777H472.121C472.591 271.777 472.971 272.157 472.971 272.625C472.971 273.093 472.591 273.473 472.121 273.473Z" fill="white"/>
<path d="M253.681 163.587H256.983C267.754 163.587 277.919 158.595 284.503 150.071L291.027 141.625C293.41 138.54 291.212 134.063 287.313 134.063H275.916C272.687 134.063 269.639 135.559 267.665 138.116L251.468 159.081C250.048 160.92 251.359 163.587 253.681 163.587Z" fill="#5F8199"/>
<path d="M304.201 154.874H307.801C315.6 154.874 322.964 151.277 327.758 145.126L331.423 140.508C333.466 137.887 331.599 134.063 328.276 134.063H317.199C313.941 134.063 310.866 135.564 308.864 138.133L300.945 148.209C298.832 150.92 300.763 154.874 304.201 154.874Z" fill="#5F8199"/>
<path d="M348.127 148.824H349.392C356.124 148.824 362.503 145.814 366.782 140.617L367.296 139.992C369.243 137.627 367.561 134.063 364.497 134.063H358.485C355.189 134.063 352.065 135.536 349.97 138.081L345.576 143.418C343.801 145.574 345.335 148.824 348.127 148.824Z" fill="#5F8199"/>
<path d="M228.934 195.741H230.013C238.399 195.741 246.313 191.856 251.441 185.22L251.855 184.639C253.244 182.842 251.963 180.233 249.692 180.233H239.375C236.698 180.233 234.17 181.474 232.532 183.593L226.698 191.187C225.263 193.045 226.586 195.741 228.934 195.741Z" fill="#5F8199"/>
<path d="M68.2194 384.608H83.3591V325.876H68.2194V384.608Z" fill="#8FA7B8"/>
<path d="M134.486 286.199H63.2521L1.953 365.554L4.17995 372.118H75.4133L136.712 292.764L134.486 286.199Z" fill="#6C8CA6"/>
<path d="M134.486 286.199H63.2521L1.953 365.554H73.1869L134.486 286.199Z" fill="#3B4F66"/>
<path d="M101.819 324.229H71.1362L97.9718 289.49H128.655L101.819 324.229ZM72.4375 362.265H41.7545L68.5924 327.523H99.2755L72.4375 362.265ZM65.3036 327.523L38.4649 362.265H7.78256L34.6212 327.523H65.3036ZM63.9991 289.49H94.6824L67.8467 324.229H37.1636L63.9991 289.49ZM131.947 289.49L133.503 287.471L134.486 286.199H134.483L134.485 286.197H63.2514L60.709 289.49H60.7097L33.8748 324.229H33.8733L31.7777 326.944L1.953 365.554H1.95446L1.95373 365.554H73.1847V365.554H73.1869L102.565 327.523H102.566L103.778 325.952L131.944 289.49H131.947Z" fill="#8FA7B8"/>
<path d="M57.82 312.792H60.9481C67.7234 312.792 74.12 309.667 78.2859 304.323L81.4699 300.311C83.245 298.034 81.6224 294.712 78.7348 294.712H69.1114C66.283 294.712 63.6114 296.017 61.8722 298.248L54.9921 307.001C53.1566 309.356 54.8345 312.792 57.82 312.792Z" fill="#5F8199"/>
<path d="M93.7889 307.539H94.8871C100.736 307.539 106.279 304.923 109.997 300.408L110.445 299.865C112.136 297.81 110.675 294.712 108.012 294.712H102.788C99.9247 294.712 97.2105 295.994 95.3897 298.204L91.5714 302.842C90.0286 304.716 91.3614 307.539 93.7889 307.539Z" fill="#5F8199"/>
<path d="M155.142 384.608H170.281V325.876H155.142V384.608Z" fill="#8FA7B8"/>
<path d="M221.408 286.199H150.174L88.8751 365.554L91.1015 372.118H162.335L223.635 292.764L221.408 286.199Z" fill="#6C8CA6"/>
<path d="M221.408 286.199H150.174L88.8751 365.554H160.108L221.408 286.199Z" fill="#3B4F66"/>
<path d="M188.742 324.229H158.058L184.894 289.49H215.576L188.742 324.229ZM159.359 362.265H128.677L155.515 327.523H186.198L159.359 362.265ZM152.226 327.523L125.387 362.265H94.7039L121.543 327.523H152.226ZM150.922 289.49H181.604L154.769 324.229H124.086L150.922 289.49ZM218.869 289.49L220.416 287.484L221.408 286.199H221.406L221.407 286.197H150.173L147.631 289.49H147.633L120.797 324.229H120.796L118.668 326.986L88.8751 365.554H88.8759V365.554H160.106V365.554H160.108L189.487 327.523H189.489L190.668 325.993L218.866 289.49H218.869Z" fill="#8FA7B8"/>
<path d="M577.675 143.188C578.818 146.588 582.763 149.991 584.69 151.187C587.567 152.965 592.333 148.365 590.667 145.502C590.062 144.458 588.919 142.222 588.471 140.352C588.045 138.602 588.672 134.308 588.389 133.926C588.172 133.638 587.178 133.717 586.76 134.365C586.416 134.888 586.252 136.005 586.102 136.427C585.841 137.146 585.475 136.707 585.318 136.384C584.661 135.085 584.183 133.348 583.936 131.252C583.749 129.659 582.539 129.634 581.441 130.187C576.241 132.81 576.495 139.685 577.675 143.188Z" fill="#EB987A"/>
<path d="M748.065 230.947C748.409 235.085 750.232 236.899 748.902 236.899C747.565 236.899 742.933 227.35 741.095 223.284C742.611 222.191 745.137 220.992 746.541 221.682C748.297 222.546 747.699 226.505 748.065 230.947Z" fill="#5F8199"/>
<path d="M752.129 358.701C752.787 360.659 752.361 363.893 752.286 366.482C752.204 368.929 752.488 370.561 751.965 372.5C751.024 376.011 743.829 378.577 741.797 376.168C740.251 374.351 744.793 366.186 742.41 361.897C741.887 360.951 737.441 353.543 735.103 350.435C732.167 346.512 739.601 342.208 742.021 345.986C744.374 349.668 744.853 351.912 746.847 353.699C748.61 355.292 750.799 354.761 752.129 358.701Z" fill="#3B4F66"/>
<path d="M715.395 274.293C716.007 279.623 717.15 292.125 720.849 300.382C724.181 307.82 741.685 341.321 747.445 352.519C744.644 354.484 737.748 359.03 734.864 360.818C731.98 357.363 709.403 325.476 703.307 314.036C696.859 301.929 689.157 281.452 686.878 274.348C684.921 268.244 676.501 249.177 676.882 245.429C681.619 241.063 701.312 235.327 706.056 235.327C714.932 246.539 714.072 262.811 715.395 274.293Z" fill="#5F8199"/>
<path d="M715.298 333.254C710.315 325.762 705.66 318.458 703.307 314.035C696.859 301.928 689.157 281.453 686.878 274.349C685.503 270.056 680.931 259.363 678.473 252.085C680.954 246.668 693.527 258.102 695.051 265.769C696.867 274.934 700.169 291.863 703.964 302.563C707.408 312.257 718.592 331.315 715.298 333.254Z" fill="#3B4F66"/>
<path d="M757.18 239.666C755.97 236.502 751.987 233.529 750.045 232.521C747.161 231.025 742.567 235.744 744.277 238.359C744.912 239.314 746.093 241.368 746.578 243.12C747.042 244.76 746.541 248.9 746.833 249.244C747.049 249.504 748.028 249.359 748.431 248.712C748.753 248.191 748.887 247.113 749.029 246.7C749.261 245.996 749.634 246.389 749.806 246.686C750.478 247.88 751.001 249.504 751.3 251.486C751.524 252.993 752.712 252.933 753.788 252.33C758.853 249.467 758.435 242.925 757.18 239.666Z" fill="#EB987A"/>
<path d="M671.727 384.607C668.873 384.607 660.887 384.607 656.06 384.607C651.234 384.607 652.99 382.373 655.627 381.236C657.951 380.237 661.215 379.645 663.397 377.609C665.026 376.078 665.93 371.023 666.199 368.433C666.378 366.631 672.758 367.164 672.556 369.21C672.243 372.355 673.939 379.478 673.655 382.346C673.505 383.882 673.169 384.607 671.727 384.607Z" fill="#3B4F66"/>
<path d="M704.704 235.327C712.354 256.16 699.018 264.672 695.395 267.264C692.997 267.264 690.233 267.264 686.826 267.264C684.868 284.4 681.103 305.024 680.901 312.777C680.58 324.767 680.662 361.885 680.154 375.374C674.678 375.374 666.684 375.374 664.092 375.374C662.269 364.519 656.285 332.744 657.121 309.374C657.943 286.069 656.255 258.638 657.017 245.575C661.97 244.65 693.326 235.883 704.704 235.327Z" fill="#5F8199"/>
<path d="M678.399 162.879C677.793 169.128 668.544 172.923 663.606 172.923C658.675 172.923 658.922 166.669 660.125 160.507C661.492 153.497 666.505 150.596 671.406 151.157C677.48 151.852 679.019 156.467 678.399 162.879Z" fill="#EB987A"/>
<path d="M678.414 176.029C682.082 178.517 662.665 184.948 662.769 181.31C662.859 178.043 663.203 174.743 663.591 170.046C663.995 165.222 678.07 158.931 677.913 163.138C677.734 167.804 675.522 174.064 678.414 176.029Z" fill="#EB987A"/>
<path d="M679.549 160.597C679.549 166.233 679.549 171.177 674.163 171.177C672.384 171.177 670.636 170.686 669.434 169.436C668.141 168.1 669.239 164.329 669.314 163.289C669.508 160.814 666.766 161.087 665.683 163.862C664.443 163.644 664.727 161.394 664.727 160.391C664.704 155.397 662.097 154.69 661.761 152.762C661.215 149.635 666.669 148.226 670.158 148.432C677.457 148.863 679.549 154.96 679.549 160.597Z" fill="#2D374D"/>
<path d="M750.478 225.708C747.483 221.281 736.919 206.877 731.114 200.342C725.615 194.163 722.948 190.976 713.034 185.735C707.842 182.992 698.525 180.404 689.672 178.544C684.189 177.39 680.154 176.113 676.598 176.218C671.062 176.382 669.262 176.905 664.114 178.921C659.744 180.636 650.375 180.377 644.473 178.915C633.939 176.306 623.965 174.068 617.488 168.983C610.884 163.806 599.603 151.572 595.247 147.335C592.894 145.049 591.078 144.514 588.127 146.517C584.87 148.729 582.696 154.06 585.916 158.044C589.278 162.199 601.044 175.646 607.387 181.66C613.386 187.346 618.34 189.881 628.672 194.255C632.662 195.944 636.412 197.61 639.998 198.878C643.898 200.262 646.236 203.88 646.797 207.983C648.859 223.056 648.806 248.695 655.695 252.166C670.509 259.629 705.16 252.236 712.608 242.615C710.905 230.865 706.878 215.939 703.277 203.655C709.478 205.393 714.864 207.312 718.802 210.98C724.935 216.703 736.291 230.985 740.273 235.579C742.417 238.06 744.18 238.747 747.288 237.003C750.725 235.079 753.355 229.953 750.478 225.708Z" fill="#F6CD7D"/>
<path d="M710.882 200.009C707.042 198.119 703.508 196.934 701.133 196.827C701.842 198.919 702.56 201.215 703.277 203.656C709.478 205.394 714.864 207.312 718.802 210.98C720.908 212.947 723.635 215.929 726.474 219.179C726.459 215.763 719.362 204.18 710.882 200.009Z" fill="#DEA364"/>
<path d="M485.619 51.1104C485.619 78.0677 463.766 99.921 436.808 99.921C409.852 99.921 387.998 78.0677 387.998 51.1104C387.998 24.1537 409.852 2.30048 436.808 2.30048C463.766 2.30048 485.619 24.1537 485.619 51.1104Z" fill="#0082C6"/>
<path d="M437.144 45.5356L449.744 16.5198H433.139L421.169 52.6964H438.728L425.231 85.7023L460.644 45.5356H437.144Z" fill="white"/>
<path d="M754.707 385.455H0.847275C0.37953 385.455 0 385.075 0 384.607C0 384.139 0.37953 383.759 0.847275 383.759H754.707C755.178 383.759 755.559 384.139 755.559 384.607C755.559 385.075 755.178 385.455 754.707 385.455Z" fill="#343959"/>
</svg>
