<?xml version="1.0" encoding="UTF-8"?>
<!DOCTYPE svg PUBLIC "-//W3C//DTD SVG 1.1//EN" "http://www.w3.org/Graphics/SVG/1.1/DTD/svg11.dtd">
<!-- Creator: CorelDRAW 2020 (64 Bit) -->
<svg xmlns="http://www.w3.org/2000/svg" xml:space="preserve" width="41.6cm" height="24.1cm" version="1.1" shape-rendering="geometricPrecision" text-rendering="geometricPrecision" image-rendering="optimizeQuality" fill-rule="evenodd" clip-rule="evenodd"
viewBox="0 0 41600 24100"
 xmlns:xlink="http://www.w3.org/1999/xlink"
 xmlns:xodm="http://www.corel.com/coreldraw/odm/2003">
 <g id="Camada_x0020_1">
  <metadata id="CorelCorpID_0Corel-Layer"/>
  <g id="_2997543570704">
   <path fill="#EEF5E5" fill-rule="nonzero" d="M38719.26 7284.41c3914.2,5268.56 -4893.45,13999.92 -12044.95,16144.57 -7151.28,2144.6 -16879.62,-1228.83 -18767.63,-7524.71 -1888.09,-6296.01 976.85,-13295.95 8128.3,-15440.55 3258.53,-977.22 8156.81,-274.84 11703.31,2154.87 4601.85,3152.67 8017.41,677.43 10980.97,4665.82z"/>
   <path fill="#C5E0D6" fill-rule="nonzero" d="M33401.21 21096.46c369.37,-448.65 708.07,-956.48 1000.54,-1514.84 1036.12,-1979.26 1220.19,-4074.5 624.62,-5501.46 -1511.85,323.47 -3129.64,1668.22 -4165.64,3647.49 -593.73,1134.09 -907.68,2306.14 -955.66,3368.81l3496.14 0z"/>
   <path fill="white" fill-rule="nonzero" d="M31352.49 21142.88c-7.4,0 -14.81,-1.67 -21.48,-5.27 -22.58,-11.91 -31.41,-39.97 -19.79,-62.67l3344.55 -6387.1c11.86,-22.66 40.08,-31.46 62.58,-19.55 22.5,11.9 31.5,39.92 19.23,62.66l-3343.98 6387.06c-8.18,15.79 -24.54,24.87 -41.11,24.87z"/>
   <path fill="white" fill-rule="nonzero" d="M32179.38 19563.3c-22.49,0 -42.54,-16.81 -45.81,-40.01 -3.68,-25.4 13.91,-48.88 39.68,-52.4l2121.33 -294.96c25.36,-3.48 48.67,14.23 52.76,39.59 3.28,25.41 -14.72,48.84 -40.08,52.36l-2121.33 294.97c-2.46,0.28 -4.5,0.45 -6.55,0.45z"/>
   <path fill="white" fill-rule="nonzero" d="M32985.62 18024.13c-22.09,0 -41.31,-15.46 -45.41,-37.68 -5.31,-25.15 11.46,-49.49 36.41,-54.32l1782.23 -341.72c24.95,-4.74 49.49,11.66 54.4,36.82 4.91,25.19 -11.45,49.53 -36.81,54.36l-1782.23 341.72c-2.86,0.57 -5.73,0.82 -8.59,0.82z"/>
   <path fill="white" fill-rule="nonzero" d="M33849.94 16373.29c-21.27,0 -40.5,-14.4 -45.4,-35.76 -5.32,-24.95 9.81,-49.94 34.77,-55.87l1153.92 -272.59c24.96,-5.85 49.91,9.53 56.04,34.52 5.73,24.95 -9.4,49.95 -34.77,55.84l-1153.92 272.59c-3.69,0.86 -7.37,1.27 -10.64,1.27z"/>
   <path fill="white" fill-rule="nonzero" d="M32096.75 19720.86c-16.77,0 -33.54,-9.32 -41.31,-25.48l-966.09 -1911.65c-11.66,-22.87 -2.5,-50.81 20.45,-62.34 22.58,-11.54 50.8,-2.37 62.09,20.45l966.18 1911.65c11.86,22.91 2.45,50.81 -20.45,62.38 -6.55,3.4 -13.5,4.99 -20.87,4.99z"/>
   <path fill="white" fill-rule="nonzero" d="M32902.58 18181.69c-17.59,0 -34.77,-10.26 -42.13,-27.61l-734.65 -1659.43c-10.23,-23.44 0.41,-50.89 23.72,-61.23 23.73,-10.39 50.72,0.2 61.36,23.64l734.24 1659.43c10.23,23.44 0,50.85 -23.72,61.24 -6.14,2.69 -12.27,3.96 -18.82,3.96z"/>
   <path fill="white" fill-rule="nonzero" d="M33766.9 16530.85c-18.4,0 -35.99,-11.17 -42.95,-29.45l-433.59 -1103.82c-9.41,-23.85 2.46,-50.8 26.59,-60.17 23.31,-9.37 50.72,2.37 59.72,26.26l433.59 1103.78c9.41,23.89 -2.45,50.8 -26.59,60.17 -4.9,2.21 -11.04,3.23 -16.77,3.23z"/>
   <path fill="#5F8199" fill-rule="nonzero" d="M32338.09 18256.26l-3516.39 0c-226.86,0 -410.64,-183.78 -410.64,-410.48l0 -2227.89 4337.72 0 0 2227.89c0,226.7 -183.66,410.48 -410.69,410.48z"/>
   <path fill="#3B4F66" fill-rule="nonzero" d="M31134.14 19389.12l-1108.77 0c-236.72,0 -457.24,-119.72 -586.33,-318.11l-529.52 -814.75 3340.63 0 -529.72 814.75c-128.85,198.39 -349.74,318.11 -586.29,318.11z"/>
   <path fill="white" fill-rule="nonzero" d="M32748.78 17806.06l-4337.72 0c-61.4,0 -111.47,-49.86 -111.47,-111.42 0,-61.48 50.07,-111.39 111.47,-111.39l4337.72 0c61.36,0 111.26,49.91 111.26,111.39 0,61.56 -49.9,111.42 -111.26,111.42z"/>
   <path fill="white" fill-rule="nonzero" d="M32748.78 17186.35l-4337.72 0c-61.4,0 -111.47,-49.86 -111.47,-111.38 0,-61.52 50.07,-111.43 111.47,-111.43l4337.72 0c61.36,0 111.26,49.91 111.26,111.43 0,61.52 -49.9,111.38 -111.26,111.38z"/>
   <path fill="white" fill-rule="nonzero" d="M32748.78 16566.64l-4337.72 0c-61.4,0 -111.47,-49.86 -111.47,-111.38 0,-61.52 50.07,-111.38 111.47,-111.38l4337.72 0c61.36,0 111.26,49.86 111.26,111.38 0,61.52 -49.9,111.38 -111.26,111.38z"/>
   <path fill="white" fill-rule="nonzero" d="M30738.67 6676.4c378.9,656.24 -514.01,978.28 -1537.41,1569.24 -1023.4,590.95 -1790.33,1226.98 -2169.23,570.75 -378.86,-656.24 77.96,-1914.85 1101.36,-2505.76 1023.45,-590.95 2226.42,-290.47 2605.28,365.77z"/>
   <path fill="#B4CCC6" fill-rule="nonzero" d="M33449.48 10188.7c593.12,-1401.15 439.32,-4533.73 -2635.3,-5158.6 2272.07,118.91 4084.56,2001.52 4123.01,4276.49 15.14,895.2 -240.52,1729.67 -689.24,2427.71 -661.85,1029.17 -1012.81,2227.35 -1012.81,3451.07l0 0c0,238.88 -193.48,432.52 -432.77,432.52l-4442.49 0c-240.23,0 -435.31,-194.83 -435.31,-435.18l0 -0.04c0,-550.54 -68.1,-1097.81 -204.97,-1626.22 300.94,1111.75 817.36,1683.48 1889.48,1683.48 924.62,0 1589.61,-529.72 1984.54,-1506.98 485.55,-1200.23 1254.15,-2121.37 1855.86,-3544.25z"/>
   <path fill="#88BFB1" fill-rule="nonzero" d="M28448.08 9076.58c-187.31,566.25 -52.57,1340.05 408.51,2024.1 461.08,684.01 1128.2,1098.99 1723.33,1137.69 187.34,-566.29 52.56,-1340.13 -408.52,-2024.14 -461.41,-684.01 -1128.16,-1099.03 -1723.32,-1137.65z"/>
   <path fill="#509993" fill-rule="nonzero" d="M30579.92 15729.32c-61.73,0 -111.47,-49.9 -111.47,-111.43l0 -3379.52c0,-61.56 49.74,-111.43 111.47,-111.43 61.4,0 111.5,49.87 111.5,111.43l0 3379.52c0,61.53 -50.1,111.43 -111.5,111.43z"/>
   <path fill="#509993" fill-rule="nonzero" d="M33343.95 8139.12c242.56,734.16 67.9,1737.4 -529.72,2624.22 -598.03,886.82 -1462.76,1424.88 -2234.31,1475.03 -243.06,-734.16 -68.44,-1737.44 529.51,-2624.26 597.91,-886.82 1462.64,-1424.88 2234.52,-1474.99z"/>
   <path fill="#5F8199" fill-rule="nonzero" d="M30577.46 5135.35c-1093.63,0 -2123.04,409.21 -2920.32,1165.87 -853.73,810.08 -1323.6,1904.17 -1323.6,3080.59 0,828.37 238.84,1631.09 690.76,2321.32 661.8,1010.76 1011.74,2213.98 1011.74,3479.54 0,178.59 145.34,323.8 323.84,323.8l4442.49 0c177.11,0 321.51,-144.07 321.51,-321.1 0,-1248.95 356.28,-2463.14 1030.39,-3511.33 453.23,-704.91 685.98,-1522.93 671.25,-2365.57 -37.22,-2220.77 -1801.86,-4051.18 -4017.35,-4167.11 -76.9,-4.05 -154.17,-6.01 -230.71,-6.01zm2224.91 10593.97l-4442.49 0c-301.26,0 -546.77,-245.23 -546.77,-546.65 0,-1222.08 -337.26,-2383.08 -975.09,-3357.48 -475.89,-726.6 -727.46,-1571.49 -727.46,-2443.38 0,-623.96 126.32,-1227.68 375.02,-1794.41 240.23,-547.39 582.77,-1034.57 1018.12,-1447.79 434.99,-412.69 938.4,-728.89 1496.47,-939.79 579.99,-219.25 1192.42,-313.83 1819.66,-280.94 2331.86,121.98 4189.36,2048.48 4228.63,4385.79 14.72,886.86 -229.48,1747.82 -706.84,2489.92 -650.8,1012.15 -995.22,2184.65 -995.22,3390.78 0,299.91 -243.79,543.95 -544.03,543.95z"/>
   <path fill="#88BFB1" fill-rule="nonzero" d="M4359.4 12380.15c150.45,1758.42 1418.67,3706.02 3470.22,5028.93 2051.54,1322.87 4348.93,1674.44 6012.78,1085.9 -150.45,-1758.42 -1418.67,-3706.02 -3470.22,-5028.97 -2051.5,-1322.87 -4348.93,-1674.4 -6012.78,-1085.86z"/>
   <path fill="#C5E0D6" fill-rule="nonzero" d="M13842.35 18541.41c-8.59,0 -17.3,-2.41 -25.07,-7.4l-8996.8 -5801.35c-21.51,-13.9 -27.73,-42.62 -13.82,-64.18 13.91,-21.51 42.62,-27.69 64.18,-13.86l8996.71 5801.34c21.52,13.91 27.74,42.66 13.87,64.18 -8.88,13.74 -23.81,21.27 -39.07,21.27z"/>
   <path fill="#C5E0D6" fill-rule="nonzero" d="M7194.36 16798.41c-19.47,0 -37.59,-12.31 -44.05,-31.82 -8.06,-24.3 5.19,-50.6 29.53,-58.66l2608.14 -861.99c24.34,-8.02 50.6,5.15 58.66,29.49 8.02,24.34 -5.16,50.6 -29.49,58.66l-2608.19 862.03c-4.82,1.55 -9.73,2.29 -14.6,2.29z"/>
   <path fill="#C5E0D6" fill-rule="nonzero" d="M6057.53 15435.46c-20.53,0 -39.31,-13.75 -44.79,-34.53 -6.58,-24.74 8.14,-50.19 32.93,-56.77l2101.98 -558.48c24.79,-6.58 50.19,8.14 56.78,32.97 6.58,24.75 -8.18,50.19 -32.93,56.74l-2101.98 558.51c-4.01,1.03 -8.02,1.56 -11.99,1.56z"/>
   <path fill="#C5E0D6" fill-rule="nonzero" d="M5097.17 14034.87c-20.99,0 -40.05,-14.31 -45.12,-35.67 -5.93,-24.95 9.49,-49.94 34.44,-55.91l1283.23 -305.11c24.99,-5.81 49.98,9.49 55.87,34.4 5.98,24.95 -9.44,49.98 -34.4,55.92l-1283.23 305.15c-3.64,0.81 -7.24,1.22 -10.79,1.22z"/>
   <path fill="#C5E0D6" fill-rule="nonzero" d="M7987.39 14765.56c-22.26,0 -41.97,-16.08 -45.74,-38.78l-358.61 -2145.1c-4.29,-25.32 12.84,-49.25 38.08,-53.46 25.32,-4.25 49.21,12.85 53.47,38.13l358.61 2145.17c4.25,25.24 -12.85,49.13 -38.12,53.38 -2.58,0.45 -5.16,0.66 -7.69,0.66z"/>
   <path fill="#C5E0D6" fill-rule="nonzero" d="M6208.27 13618.34c-21.77,0 -41.24,-15.42 -45.53,-37.55l-251.57 -1294.81c-4.86,-25.19 11.58,-49.53 36.74,-54.44 25.11,-4.95 49.53,11.57 54.44,36.73l251.57 1294.81c4.82,25.15 -11.58,49.53 -36.74,54.4 -2.98,0.57 -5.97,0.86 -8.91,0.86z"/>
   <path fill="#C5E0D6" fill-rule="nonzero" d="M7193.3 6917.95c-794.05,1902.61 -548.78,4696.25 833.03,7335.27 1381.81,2639.03 3538.11,4432.05 5554.15,4863.27 794.01,-1902.61 548.74,-4696.21 -833.07,-7335.23 -1381.81,-2639.03 -3538.11,-4432.01 -5554.11,-4863.31z"/>
   <path fill="white" fill-rule="nonzero" d="M13580.52 19162.92c-16.73,0 -32.89,-9.08 -41.19,-24.91l-5853.74 -11179.77c-11.9,-22.7 -3.15,-50.76 19.59,-62.67 22.75,-11.82 50.77,-3.1 62.63,19.6l5853.78 11179.77c11.9,22.74 3.11,50.76 -19.59,62.66 -6.87,3.6 -14.24,5.32 -21.48,5.32z"/>
   <path fill="white" fill-rule="nonzero" d="M9100.98 10607.65c-2.62,0 -5.28,-0.2 -7.93,-0.69l-1669.87 -287.24c-25.23,-4.41 -42.17,-28.38 -37.87,-53.62 4.37,-25.28 28.38,-42.09 53.62,-37.92l1669.86 287.31c25.28,4.34 42.18,28.31 37.84,53.63 -3.84,22.58 -23.48,38.53 -45.65,38.53z"/>
   <path fill="white" fill-rule="nonzero" d="M11087.65 14401.95c-1.63,0 -3.31,-0.08 -4.95,-0.24l-2821.62 -301.63c-25.52,-2.79 -43.97,-25.61 -41.23,-51.09 2.7,-25.53 25.56,-44.18 51.09,-41.24l2821.58 301.64c25.52,2.74 43.97,25.6 41.23,51.09 -2.53,23.8 -22.66,41.47 -46.1,41.47z"/>
   <path fill="white" fill-rule="nonzero" d="M10053.33 12426.57c-1.96,0 -3.93,-0.16 -5.89,-0.41l-2346.92 -298.97c-25.48,-3.23 -43.44,-26.51 -40.21,-51.95 3.23,-25.4 26.47,-43.4 51.91,-40.17l2346.92 298.98c25.44,3.27 43.44,26.5 40.17,51.95 -2.95,23.43 -22.95,40.57 -45.98,40.57z"/>
   <path fill="white" fill-rule="nonzero" d="M8936.58 10303.28c-6.54,0 -13.21,-1.43 -19.55,-4.38 -23.27,-10.84 -33.29,-38.45 -22.45,-61.68l715.1 -1536.02c10.79,-23.28 38.45,-33.3 61.64,-22.5 23.27,10.8 33.34,38.41 22.5,61.64l-715.1 1536.07c-7.9,16.89 -24.67,26.87 -42.14,26.87z"/>
   <path fill="white" fill-rule="nonzero" d="M10923.3 14097.58c-7.53,0 -15.18,-1.84 -22.21,-5.73 -22.5,-12.27 -30.77,-40.45 -18.49,-62.99l1359.47 -2490.82c12.27,-22.5 40.42,-30.76 62.95,-18.49 22.5,12.27 30.81,40.49 18.53,62.95l-1359.47 2490.86c-8.43,15.43 -24.38,24.22 -40.78,24.22z"/>
   <path fill="white" fill-rule="nonzero" d="M9888.97 12122.16c-7.2,0 -14.56,-1.72 -21.39,-5.28 -22.74,-11.82 -31.62,-39.8 -19.76,-62.58l1091.22 -2099.24c11.83,-22.71 39.85,-31.58 62.63,-19.76 22.7,11.82 31.58,39.84 19.76,62.58l-1091.22 2099.24c-8.31,15.88 -24.46,25.04 -41.24,25.04z"/>
   <polygon fill="white" fill-rule="nonzero" points="10637.25,21096.46 19888.23,21096.46 19888.23,12187.12 10637.25,12187.12 "/>
   <polygon fill="#3B4F66" fill-rule="nonzero" points="23962.69,6912.55 14711.71,6912.55 10637.25,12187.12 19888.23,12187.12 "/>
   <path fill="#8FA7B8" fill-rule="nonzero" d="M17799.01 11968.48l1783.9 -2309.33 2039.48 0 -1783.9 2309.33 -2039.48 0zm-2258.04 0l1783.91 -2309.33 2039.44 0 -1783.91 2309.33 -2039.44 0zm-2258.11 0l1783.9 -2309.33 2039.44 0 -1783.9 2309.33 -2039.44 0zm-2258.08 0l1783.87 -2309.33 2039.48 0 -1783.91 2309.33 -2039.44 0zm5776.15 -4837.26l-1783.91 2309.33 -2039.44 0 1783.87 -2309.33 2039.48 0zm2258.07 0l-1783.94 2309.33 -2039.4 0 1783.9 -2309.33 2039.44 0zm2258.12 0l-1783.95 2309.33 -2039.44 0 1783.91 -2309.33 2039.48 0zm2258.03 0l-1783.86 2309.33 -2039.44 0 1783.86 -2309.33 2039.44 0zm387.54 -218.67l-9250.98 0 -4074.46 5274.52 9250.98 0 168.89 -218.59 0 0 3905.57 -5055.93z"/>
   <polygon fill="#C6C6C6" fill-rule="nonzero" points="15660.62,21096.46 16023.95,21096.46 16023.95,17120.43 15660.62,17120.43 "/>
   <polygon fill="#5F8199" fill-rule="nonzero" points="16023.94,21096.46 17520.34,21096.46 17520.34,17120.43 16023.94,17120.43 "/>
   <polygon fill="#F6CD7D" fill-rule="nonzero" points="14071.63,21096.46 15183.03,21096.46 15183.03,16437.22 14071.63,16437.22 "/>
   <polygon fill="#F6CD7D" fill-rule="nonzero" points="16886.58,16437.22 17997.96,16437.22 17997.96,15708.43 16886.58,15708.43 "/>
   <polygon fill="#DEA364" fill-rule="nonzero" points="14071.63,15708.42 14071.59,15708.46 14071.59,15708.38 13342.82,15708.38 13342.82,21096.46 14071.59,21096.46 14071.59,16437.18 16886.58,16437.18 16886.58,15708.42 "/>
   <polygon fill="#F6CD7D" fill-rule="nonzero" points="23962.69,6912.55 19888.23,12187.07 19888.23,12187.07 19888.23,12187.07 19888.23,21096.46 20617.03,21096.46 20617.03,12435.82 23962.69,8104.72 "/>
   <polygon fill="#F6CD7D" fill-rule="nonzero" points="23962.69,6912.55 28037.1,12187.07 28037.1,21096.46 27308.26,21096.46 27308.26,12435.82 23962.69,8104.72 "/>
   <polygon fill="#DEA364" fill-rule="nonzero" points="23962.73,8104.72 23256.58,9018.82 25896.1,12435.82 25896.1,21096.46 27308.26,21096.46 27308.26,12435.82 "/>
   <polygon fill="#3B4F66" fill-rule="nonzero" points="25896.1,12435.82 23256.58,9018.82 20617.03,12435.82 20617.03,21096.46 25896.1,21096.46 "/>
   <polygon fill="#5F8199" fill-rule="nonzero" points="24837.15,14174.44 24837.15,21096.54 20616.91,21096.54 20616.91,12803.68 22197.64,10757.24 "/>
   <polygon fill="#C6C6C6" fill-rule="nonzero" points="15660.62,14851.01 16023.95,14851.01 16023.95,13044.5 15660.62,13044.5 "/>
   <polygon fill="#5F8199" fill-rule="nonzero" points="16023.94,14851.01 17520.34,14851.01 17520.34,13044.5 16023.94,13044.5 "/>
   <polygon fill="#3B4F66" fill-rule="nonzero" points="16023.94,13523.44 17520.34,13523.44 17520.34,13044.5 16023.94,13044.5 "/>
   <polygon fill="#3B4F66" fill-rule="nonzero" points="16023.94,17599.33 17520.34,17599.33 17520.34,17120.42 16023.94,17120.42 "/>
   <path fill="white" fill-rule="nonzero" d="M21435.17 21142.96c-25.61,0 -46.39,-20.82 -46.39,-46.42l0 -9719.87c0,-25.65 20.78,-46.43 46.39,-46.43 25.65,0 46.47,20.78 46.47,46.43l0 9719.87c0,25.6 -20.82,46.42 -46.47,46.42z"/>
   <path fill="white" fill-rule="nonzero" d="M23665.63 21142.92c-25.64,0 -46.42,-20.82 -46.42,-46.42l0 -11546.69c0,-25.61 20.78,-46.43 46.42,-46.43 25.65,0 46.39,20.82 46.39,46.43l0 11546.69c0,25.6 -20.74,46.42 -46.39,46.42z"/>
   <path fill="white" fill-rule="nonzero" d="M25896.1 21142.88c-25.77,0 -46.59,-20.78 -46.59,-46.42l0 -8660.64c0,-25.65 20.82,-46.39 46.59,-46.39 25.73,0 46.55,20.74 46.55,46.39l0 8660.64c0,25.64 -20.82,46.42 -46.55,46.42z"/>
   <path fill="white" fill-rule="nonzero" d="M25896.1 17166.84l-5279.19 0c-25.65,0 -46.39,-20.78 -46.39,-46.43 0,-25.6 20.74,-46.42 46.39,-46.42l5279.19 0c25.73,0 46.55,20.82 46.55,46.42 0,25.65 -20.82,46.43 -46.55,46.43z"/>
   <path fill="white" fill-rule="nonzero" d="M25896.1 15011.64l-5279.19 0c-25.65,0 -46.39,-20.78 -46.39,-46.42 0,-25.61 20.74,-46.39 46.39,-46.39l5279.19 0c25.73,0 46.55,20.78 46.55,46.39 0,25.64 -20.82,46.42 -46.55,46.42z"/>
   <path fill="#5F8199" fill-rule="nonzero" d="M13936.11 8995.18l180.76 0c589.76,0 1146.28,-273.33 1506.81,-740.05l357.18 -462.39c130.49,-168.94 10.11,-414.08 -203.37,-414.08l-623.97 0c-176.83,0 -343.68,81.93 -451.79,221.91l-886.78 1147.91c-77.76,100.67 -5.97,246.7 121.16,246.7z"/>
   <path fill="#5F8199" fill-rule="nonzero" d="M16702.14 8518.15l197.12 0c427.01,0 830.21,-196.96 1092.7,-533.73l200.68 -252.87c111.87,-143.5 9.61,-352.89 -172.34,-352.89l-606.45 0c-178.39,0 -346.75,82.22 -456.38,222.89l-433.59 551.64c-115.68,148.45 -9.94,364.96 178.26,364.96z"/>
   <path fill="#5F8199" fill-rule="nonzero" d="M19107.23 8186.9l69.25 0c368.6,0 717.84,-164.85 952.1,-449.38l28.15 -34.2c106.64,-129.5 14.52,-324.66 -153.23,-324.66l-329.17 0c-180.47,0 -351.49,80.7 -466.23,220.03l-240.56 292.22c-97.19,118.05 -13.21,295.99 139.69,295.99z"/>
   <path fill="#5F8199" fill-rule="nonzero" d="M12581.13 10755.69l59.07 0c459.2,0 892.46,-212.71 1173.23,-576.07l22.71 -31.78c76.04,-98.38 5.89,-241.26 -118.46,-241.26l-564.86 0c-146.6,0 -284.98,67.95 -374.65,183.99l-319.47 415.76c-78.57,101.73 -6.09,249.36 122.43,249.36z"/>
   <polygon fill="#8FA7B8" fill-rule="nonzero" points="3781.7,21096.5 4610.63,21096.5 4610.63,17880.84 3781.7,17880.84 "/>
   <polygon fill="#6C8CA6" fill-rule="nonzero" points="7409.93,15708.46 3509.73,15708.46 153.48,20053.26 275.41,20412.69 4175.58,20412.69 7531.83,16067.89 "/>
   <polygon fill="#3B4F66" fill-rule="nonzero" points="7409.93,15708.46 3509.73,15708.46 153.48,20053.26 4053.68,20053.26 "/>
   <path fill="#8FA7B8" fill-rule="nonzero" d="M5621.36 17790.68l-1679.96 0 1469.3 -1902.04 1679.97 0 -1469.31 1902.04zm-1608.71 2082.51l-1679.96 0 1469.43 -1902.2 1679.96 0 -1469.43 1902.2zm-390.6 -1902.2l-1469.47 1902.2 -1679.92 0 1469.47 -1902.2 1679.92 0zm-71.42 -2082.35l1679.97 0 -1469.31 1902.04 -1679.96 0 1469.3 -1902.04zm3720.31 0l85.16 -110.56 53.83 -69.62 -0.16 0 0.12 -0.12 -3900.2 0 -139.2 180.3 0.04 0 -1469.27 1902.04 -0.08 0 -114.74 148.65 -1632.96 2113.93 0.08 0 -0.04 0.04 3900.04 0 0 -0.04 0.12 0 1608.51 -2082.27 0.04 0 66.39 -85.98 1542.11 -1996.37 0.21 0z"/>
   <path fill="#5F8199" fill-rule="nonzero" d="M3212.31 17164.43l171.27 0c370.96,0 721.19,-171.07 949.28,-463.66l174.33 -219.66c97.19,-124.68 8.35,-306.58 -149.75,-306.58l-526.9 0c-154.86,0 -301.14,71.46 -396.36,193.64l-376.7 479.24c-100.5,128.94 -8.63,317.02 154.83,317.02z"/>
   <path fill="#5F8199" fill-rule="nonzero" d="M5181.68 16876.83l60.13 0c320.24,0 623.75,-143.21 827.3,-390.44l24.5 -29.74c92.61,-112.49 12.6,-282.12 -133.19,-282.12l-286 0c-156.79,0 -305.4,70.19 -405.09,191.23l-209.06 253.9c-84.47,102.63 -11.5,257.17 121.41,257.17z"/>
   <polygon fill="#8FA7B8" fill-rule="nonzero" points="8540.87,21096.5 9369.79,21096.5 9369.79,17880.84 8540.87,17880.84 "/>
   <polygon fill="#6C8CA6" fill-rule="nonzero" points="12169.1,15708.46 8268.89,15708.46 4912.64,20053.26 5034.54,20412.69 8934.74,20412.69 12290.99,16067.89 "/>
   <polygon fill="#3B4F66" fill-rule="nonzero" points="12169.1,15708.46 8268.89,15708.46 4912.64,20053.26 8812.81,20053.26 "/>
   <path fill="#8FA7B8" fill-rule="nonzero" d="M10380.53 17790.68l-1679.97 0 1469.31 -1902.04 1679.92 0 -1469.26 1902.04zm-1608.75 2082.51l-1679.93 0 1469.47 -1902.2 1679.93 0 -1469.47 1902.2zm-390.56 -1902.2l-1469.47 1902.2 -1679.97 0 1469.47 -1902.2 1679.97 0zm-71.38 -2082.35l1679.92 0 -1469.3 1902.04 -1679.93 0 1469.31 -1902.04zm3720.22 0l84.72 -109.87 54.32 -70.31 -0.13 0 0.05 -0.12 -3900.21 0 -139.16 180.3 0.08 0 -1469.3 1902.04 -0.08 0 -116.5 150.94 -1631.21 2111.64 0.04 0 0 0.04 3900 0 0 -0.04 0.13 0 1608.54 -2082.27 0.08 0 64.59 -83.73 1543.88 -1998.62 0.16 0z"/>
   <path fill="#EB987A" fill-rule="nonzero" d="M31675.43 7878.31c62.59,186.16 278.57,372.44 384.1,437.97 157.49,97.31 418.46,-154.54 327.24,-311.29 -33.13,-57.18 -95.72,-179.57 -120.26,-281.99 -23.32,-95.8 11.04,-330.92 -4.5,-351.79 -11.86,-15.79 -66.27,-11.45 -89.17,24.01 -18.82,28.64 -27.82,89.79 -36,112.9 -14.31,39.39 -34.36,15.34 -42.95,-2.33 -35.99,-71.13 -62.17,-166.24 -75.67,-281.02 -10.23,-87.21 -76.49,-88.56 -136.63,-58.33 -284.69,143.62 -270.79,520.07 -206.16,711.87z"/>
   <path fill="#5F8199" fill-rule="nonzero" d="M41004.62 12683.25c18.82,226.57 118.63,325.89 45.82,325.89 -73.22,0 -326.83,-522.8 -427.46,-745.41 83.04,-59.88 221.3,-125.5 298.2,-87.74 96.12,47.29 63.4,264.08 83.44,507.26z"/>
   <path fill="#3B4F66" fill-rule="nonzero" d="M41227.15 19678.08c35.99,107.17 12.68,284.25 8.59,426.02 -4.5,133.97 11.04,223.34 -17.59,329.49 -51.54,192.25 -445.46,332.72 -556.72,200.84 -84.67,-99.52 164.03,-546.53 33.54,-781.36 -28.63,-51.83 -272.02,-457.44 -400.05,-627.61 -160.75,-214.79 246.25,-450.44 378.78,-243.54 128.85,201.58 155.03,324.41 264.25,422.26 96.53,87.21 216.38,58.16 289.2,273.9z"/>
   <path fill="#5F8199" fill-rule="nonzero" d="M39215.85 15056.56c33.54,291.81 96.13,976.31 298.61,1428.4 182.43,407.25 1140.83,2241.5 1456.21,2854.63 -153.39,107.58 -530.94,356.49 -688.84,454.41 -157.89,-189.18 -1394.04,-1935.09 -1727.82,-2561.42 -353.01,-662.91 -774.74,-1784.03 -899.5,-2173 -107.17,-334.23 -568.17,-1378.17 -547.31,-1583.39 259.34,-239.04 1337.59,-553.11 1597.34,-553.11 485.95,613.9 438.91,1504.81 511.31,2133.48z"/>
   <path fill="#3B4F66" fill-rule="nonzero" d="M39210.53 18284.81c-272.83,-410.23 -527.67,-810.12 -656.52,-1052.32 -353.01,-662.86 -774.74,-1783.9 -899.5,-2172.87 -75.27,-235.04 -325.6,-820.51 -460.18,-1219 135.8,-296.61 824.23,329.44 907.68,749.25 99.4,501.78 280.2,1428.69 487.99,2014.53 188.58,530.74 800.92,1574.23 620.53,1680.41z"/>
   <path fill="#EB987A" fill-rule="nonzero" d="M41503.66 13160.65c-66.26,-173.23 -284.29,-336.03 -390.64,-391.17 -157.89,-81.93 -409.46,176.42 -315.79,319.63 34.77,52.28 99.4,164.72 125.99,260.69 25.36,89.78 -2.04,316.44 13.91,335.25 11.86,14.24 65.45,6.34 87.54,-29.12 17.59,-28.51 24.95,-87.54 32.72,-110.16 12.68,-38.53 33.13,-17.01 42.54,-0.73 36.82,65.36 65.45,154.29 81.81,262.81 12.27,82.51 77.31,79.19 136.21,46.18 277.34,-156.75 254.43,-514.91 185.71,-693.38z"/>
   <path fill="#3B4F66" fill-rule="nonzero" d="M36824.96 21096.46c-156.26,0 -593.53,0 -857.78,0 -264.25,0 -168.12,-122.31 -23.72,-184.57 127.21,-54.69 305.96,-87.08 425.41,-198.55 89.17,-83.85 138.66,-360.62 153.39,-502.43 9.82,-98.67 359.15,-69.5 348.1,42.54 -17.18,172.21 75.68,562.19 60.13,719.23 -8.18,84.1 -26.59,123.78 -105.53,123.78z"/>
   <path fill="#5F8199" fill-rule="nonzero" d="M38630.5 12923.08c418.87,1140.67 -311.29,1606.7 -509.68,1748.6 -131.3,0 -282.65,0 -469.17,0 -107.18,938.24 -313.34,2067.46 -324.38,2491.97 -17.59,656.44 -13.09,2688.76 -40.91,3427.3 -299.83,0 -737.51,0 -879.45,0 -99.81,-594.35 -427.46,-2334.07 -381.65,-3613.66 45,-1275.99 -47.44,-2777.9 -5.72,-3493.08 271.2,-50.64 1987.98,-530.7 2610.96,-561.13z"/>
   <path fill="#EB987A" fill-rule="nonzero" d="M37190.24 8956.4c-33.14,342.17 -539.54,549.93 -809.92,549.93 -269.97,0 -256.47,-342.42 -190.62,-679.8 74.86,-383.77 349.33,-542.65 617.67,-511.93 332.55,38.05 416.82,290.76 382.87,641.8z"/>
   <path fill="#EB987A" fill-rule="nonzero" d="M37191.06 9676.41c200.84,136.21 -862.28,488.32 -856.55,289.12 4.9,-178.84 23.72,-359.56 44.99,-616.73 22.09,-264.12 792.74,-608.54 784.15,-378.2 -9.82,255.45 -130.9,598.23 27.41,705.81z"/>
   <path fill="#2D374D" fill-rule="nonzero" d="M37253.23 8831.48c0,308.59 0,579.29 -294.92,579.29 -97.36,0 -193.07,-26.91 -258.93,-95.34 -70.77,-73.14 -10.64,-279.63 -6.55,-336.57 10.64,-135.48 -139.48,-120.55 -198.79,31.37 -67.91,-11.94 -52.36,-135.11 -52.36,-190.04 -1.23,-273.45 -143.99,-312.11 -162.4,-417.68 -29.86,-171.23 268.75,-248.38 459.78,-237.09 399.64,23.57 514.17,357.43 514.17,666.06z"/>
   <path fill="#F6CD7D" fill-rule="nonzero" d="M41136.75 12396.43c-164.03,-242.37 -742.43,-1031.01 -1060.26,-1388.85 -301.06,-338.32 -447.09,-512.78 -989.9,-799.77 -284.29,-150.16 -794.37,-291.86 -1279.1,-393.71 -300.24,-63.16 -521.13,-133.11 -715.83,-127.34 -303.11,9 -401.69,37.63 -683.52,147.99 -239.3,93.88 -752.25,79.73 -1075.4,-0.32 -576.76,-142.84 -1122.84,-265.39 -1477.48,-543.79 -361.6,-283.47 -979.27,-953.29 -1217.74,-1185.31 -128.85,-125.16 -228.25,-154.45 -389.83,-44.75 -178.34,121.08 -297.37,412.98 -121.07,631.13 184.07,227.47 828.32,963.72 1175.6,1293 328.47,311.33 599.67,450.12 1165.39,689.62 218.43,92.48 423.77,183.66 620.11,253.12 213.53,75.75 341.56,273.86 372.24,498.51 112.9,825.25 110.03,2229.03 487.18,2419.11 811.14,408.6 2708.31,3.85 3116.13,-522.92 -93.26,-643.36 -313.74,-1460.6 -510.9,-2133.16 339.51,95.15 634.44,200.23 850.01,401.04 335.83,313.37 957.58,1095.31 1175.6,1346.87 117.4,135.81 213.94,173.44 384.1,77.93 188.16,-105.33 332.15,-385.98 174.67,-618.4z"/>
   <path fill="#DEA364" fill-rule="nonzero" d="M38968.78 10989.34c-210.25,-103.45 -403.73,-168.33 -533.81,-174.22 38.86,114.54 78.13,240.28 117.4,373.92 339.51,95.14 634.44,200.18 850.01,400.99 115.35,107.7 264.65,270.99 420.09,448.93 -0.82,-187.02 -389.41,-821.25 -853.69,-1049.62z"/>
   <path fill="#88BFB1" fill-rule="nonzero" d="M26635.17 2836.86c0,1475.97 -1196.51,2672.48 -2672.48,2672.48 -1475.94,0 -2672.45,-1196.51 -2672.45,-2672.48 0,-1475.93 1196.51,-2672.44 2672.45,-2672.44 1475.97,0 2672.48,1196.51 2672.48,2672.44z"/>
   <polygon fill="white" fill-rule="nonzero" points="23981.05,2531.63 24670.95,942.96 23761.8,942.96 23106.42,2923.7 24067.81,2923.7 23328.78,4730.84 25267.72,2531.63 "/>
   <path fill="#343959" fill-rule="nonzero" d="M41368.27 21142.88l-41275.33 0c-25.61,0 -46.39,-20.78 -46.39,-46.42 0,-25.61 20.78,-46.43 46.39,-46.43l41275.33 0c25.77,0 46.63,20.82 46.63,46.43 0,25.64 -20.86,46.42 -46.63,46.42z"/>
  </g>
 </g>
</svg>
